<svg xmlns="http://www.w3.org/2000/svg" viewBox="0 0 760 430" class="room-scene room-mini" role="img" aria-label="өрөө" style="--companion-accent:#8a745d"><defs><clipPath id="_R_0_-window"><path d="M228 57H554V275H228Z"></path></clipPath></defs><rect width="760" height="430" rx="30" fill="#eee2cc"></rect><g stroke="#a78766" opacity=".2"><path d="M0 38H760"></path><path d="M0 82H760"></path><path d="M0 126H760"></path><path d="M0 170H760"></path><path d="M0 214H760"></path><path d="M0 258H760"></path><path d="M0 302H760"></path></g><g stroke="#a78766" stroke-width="1" opacity=".16"><path d="M30 0V302"></path><path d="M90 0V302"></path><path d="M150 0V302"></path><path d="M610 0V302"></path><path d="M670 0V302"></path><path d="M730 0V302"></path></g><path d="M0 309H760V400Q760 430 730 430H30Q0 430 0 400Z" fill="#ccb697"></path><path d="M0 309H760" stroke="#a78766" stroke-width="3" opacity=".5"></path><g clip-path="url(#_R_0_-window)"><rect x="218" y="30" width="348" height="252" fill="#d5e2e4"></rect><g fill="#fdf5df"><circle cx="479" cy="110" r="28"></circle><path d="M246 147Q267 126 291 140Q301 111 334 135Q347 118 369 142Z" opacity=".75"></path></g><path d="M204 239Q268 160 338 220Q433 163 575 233V288H204Z" fill="#a4bba3"></path><path d="M193 272Q281 198 379 251Q492 205 586 260V290H193Z" fill="#92aa93"></path><g><path d="M211 245L298 111 364 197 424 93 578 257V289H211Z" fill="#91a7a0"></path><path d="M298 111L272 151 298 145 318 158ZM424 93L392 142 421 132 450 146Z" fill="#f7f5ea"></path></g><g fill="#7e987d"><g transform="translate(239 105)"><path d="M0 0L-25 57H-17L-34 87H34L17 57H25Z"></path><path d="M0 85V155" stroke="#7e7965" stroke-width="5"></path><path d="M0 0L-12 28 0 23 13 30Z" fill="#f3efe8"></path></g><g transform="translate(279 141)"><path d="M0 0L-25 57H-17L-34 87H34L17 57H25Z"></path><path d="M0 85V155" stroke="#7e7965" stroke-width="5"></path><path d="M0 0L-12 28 0 23 13 30Z" fill="#f3efe8"></path></g><g transform="translate(509 105)"><path d="M0 0L-25 57H-17L-34 87H34L17 57H25Z"></path><path d="M0 85V155" stroke="#7e7965" stroke-width="5"></path><path d="M0 0L-12 28 0 23 13 30Z" fill="#f3efe8"></path></g><g transform="translate(548 141)"><path d="M0 0L-25 57H-17L-34 87H34L17 57H25Z"></path><path d="M0 85V155" stroke="#7e7965" stroke-width="5"></path><path d="M0 0L-12 28 0 23 13 30Z" fill="#f3efe8"></path></g></g><g class="room-snow" fill="#faf8ee"><circle cx="239" cy="80" r="1.5"></circle><circle cx="257" cy="113" r="2.5"></circle><circle cx="275" cy="146" r="3.5"></circle><circle cx="293" cy="179" r="1.5"></circle><circle cx="311" cy="212" r="2.5"></circle><circle cx="329" cy="80" r="3.5"></circle><circle cx="347" cy="113" r="1.5"></circle><circle cx="365" cy="146" r="2.5"></circle><circle cx="383" cy="179" r="3.5"></circle><circle cx="401" cy="212" r="1.5"></circle><circle cx="419" cy="80" r="2.5"></circle><circle cx="437" cy="113" r="3.5"></circle><circle cx="455" cy="146" r="1.5"></circle><circle cx="473" cy="179" r="2.5"></circle><circle cx="491" cy="212" r="3.5"></circle><circle cx="509" cy="80" r="1.5"></circle><circle cx="527" cy="113" r="2.5"></circle><circle cx="545" cy="146" r="3.5"></circle></g></g><path d="M228 57H554V275H228Z" fill="none" stroke="#a78766" stroke-width="10"></path><path d="M391 50V274M230 184H552" stroke="#a78766" stroke-width="6"></path><path d="M282 59V274M336 52V274M447 54V274M500 72V274M231 128H550M231 230H550" stroke="#a78766" stroke-width="4"></path><rect x="216" y="275" width="349" height="12" rx="4" fill="#a78766"></rect><g><path d="M65 121H171V211H65Z" fill="#ccb697" stroke="#a78766" stroke-width="5"></path><path d="M79 194L109 151 128 177 146 159 161 194Z" fill="#8a745d" opacity=".7"></path><circle cx="143" cy="144" r="9" fill="#f4daaa"></circle></g><ellipse cx="390" cy="397" rx="220" ry="20" fill="#a78766" opacity=".19"></ellipse><path d="M222 345L214 409M571 345L579 409" fill="none" stroke="#a78766" stroke-width="14"></path><path d="M239 310Q228 237 257 222H479Q508 237 495 310" fill="#ccb697" stroke="#a78766" stroke-width="5"></path><g transform="translate(287 112) scale(1.28)"><g class="companion companion-idle" fill="#a48166" stroke="#584d46" stroke-width="2.7" stroke-linejoin="round" stroke-linecap="round"><ellipse cx="68" cy="165" rx="61" ry="8" fill="#584d46" opacity=".1" stroke="none"></ellipse><path d="M26 117Q20 158 38 163L104 163Q120 152 106 117Z"></path><ellipse cx="68" cy="143" rx="28" ry="24" fill="#eac9a2" stroke="none"></ellipse><g><circle cx="29" cy="43" r="23"></circle><circle cx="108" cy="43" r="23"></circle><circle cx="29" cy="43" r="12" fill="#eac9a2" stroke="none"></circle><circle cx="108" cy="43" r="12" fill="#eac9a2" stroke="none"></circle></g><path d="M69 34C109 34 124 51 126 85Q127 121 68 127Q8 122 10 84C11 52 28 34 69 34Z"></path><ellipse cx="69" cy="102" rx="34" ry="21" fill="#eac9a2" stroke="none"></ellipse><g class="companion-eyes" fill="#453e39" stroke="#453e39"><g><ellipse cx="45" cy="83" rx="3.2" ry="4.7"></ellipse><ellipse cx="93" cy="83" rx="3.2" ry="4.7"></ellipse></g><path d="M65 98Q69 95 73 98L69 102Z"></path><path d="M63 108Q69 112 75 108" fill="none" stroke-width="2"></path></g><g fill="#da9a90" opacity=".5" stroke="none"><ellipse cx="31" cy="99" rx="9" ry="5"></ellipse><ellipse cx="105" cy="99" rx="9" ry="5"></ellipse></g><g fill="#8a745d"><path d="M24 117Q71 132 112 117L111 129Q65 140 27 129Z"></path><path d="M90 130L106 130 102 157 87 153Z"></path></g><g class="bondook-badge" stroke-width="1.3"><circle cx="76" cy="130" r="7" fill="#efd39a"></circle><path d="M72 126H76Q81 126 79 129Q83 133 76 134H72Z" fill="none"></path><path d="M74 126V134" fill="none"></path></g><g fill="#819b72"><path d="M91 34Q82 7 109 17Q108 34 91 34Z"></path><path d="M91 34L103 20" fill="none" stroke-width="1.4"></path></g><g><path d="M26 142Q51 137 68 150Q90 137 111 142L105 170Q85 165 68 175Q49 164 31 169Z" fill="#f8efdb"></path><path d="M68 150V175M37 149L55 152M37 157L55 160M81 152L99 149M81 160L98 157" fill="none" stroke="#b9ae97" stroke-width="1.6"></path></g><ellipse class="companion-hand" cx="29" cy="145" rx="10" ry="7"></ellipse><ellipse cx="108" cy="145" rx="10" ry="7"></ellipse></g></g><rect x="175" y="337" width="450" height="20" rx="7" fill="#a78766"></rect><rect x="175" y="337" width="450" height="5" rx="3" fill="#f8e6c7" opacity=".4"></rect><g stroke="#777566" stroke-width="5" fill="none" stroke-linecap="round"><path d="M217 333H247M232 331V279L203 237 220 220"></path><path d="M196 241L230 214 239 240 216 256Z" fill="#b1b68d"></path><path d="M220 254L281 332H195Z" fill="#ffe7a0" opacity=".13" stroke="none"></path></g><g stroke="#7d7666" stroke-width="2"><rect x="506" y="314" width="70" height="17" rx="3" fill="#d5b48c"></rect><rect x="518" y="298" width="57" height="15" rx="2" fill="#93a994"></rect><path d="M514 324H570M527 306H570" stroke="#efdfc6" stroke-width="4"></path></g><g stroke="#948573" stroke-width="2"><path d="M464 301H489V325Q480 335 466 325Z" fill="#d7dfc3"></path><path d="M490 305Q506 306 490 318" fill="none"></path><ellipse cx="477" cy="301" rx="12" ry="3" fill="#a68a68"></ellipse><path class="tea-steam" d="M471 289Q467 284 471 278M482 289Q478 282 484 276" fill="none" opacity=".6"></path></g><g><path d="M617 329H661L654 386H625Z" fill="#c09174" stroke="#a8866d" stroke-width="2"></path><path d="M640 330V261" stroke="#84927a" stroke-width="4"></path><g fill="#8a745d"><path d="M640 304Q596 307 601 279Q633 273 640 304Z"></path><path d="M640 283Q646 245 674 257Q671 285 640 283Z"></path><path d="M639 273Q612 257 626 237Q651 240 639 273Z"></path><path d="M640 319Q654 289 679 303Q673 328 640 319Z"></path></g></g></svg>